# xmcd
# 
# Track frame offsets:
#     150
#     28391
#     55814
#     84464
#     106691
#     128591
#     146449
#     180049
#     234199
# 
# Disc length: 4148
# 
# Revision: 0
# Processed by: cddbd v1.5.2PL0 Copyright (c) Steve Scherf et al.
# Submitted via: fre:ac v1.0.27
# 
DISCID=62103209
DTITLE=Eric Clapton - Transmission Impossible: Radio Broadcasts- cd 1 of 3
DYEAR=2018
DGENRE=Blues
TTITLE0=White Room
TTITLE1=Politician
TTITLE2=I'm So Glad
TTITLE3=Sitting On Top Of The World
TTITLE4=Sunshine Of Your Love
TTITLE5=Crossroads
TTITLE6=Traintime
TTITLE7=Toad
TTITLE8=Spoonful
EXTD=
EXTT0=
EXTT1=
EXTT2=
EXTT3=
EXTT4=
EXTT5=
EXTT6=
EXTT7=
EXTT8=
PLAYORDER=
